<?xml version="1.0" encoding="UTF-8"?>
<svg id="Logo" xmlns="http://www.w3.org/2000/svg" viewBox="0 0 1000 741.97">
  <defs>
    <style>
      .cls-1 {
        stroke-width: 0px;
      }
    </style>
  </defs>
  <g id="_레이어_1-2" data-name=" 레이어 1-2">
    <path class="cls-1" d="m0,370.99c0,218.44,205.6,370.99,500,370.99,294.4,0,500-152.54,500-370.99S794.4,0,500,0C205.6,0,0,152.54,0,370.99Zm753.58,222.5V148.49c95.18,48.79,152.54,127.14,152.54,222.5,0,95.36-57.36,173.68-152.54,222.5Zm-116.24,40.43c-42.23,9.07-88.16,14.15-137.34,14.15s-95.08-5.08-137.34-14.15v-183.24s19.09,13.05,19.09,13.05c73.06,50.06,163.06,50.06,236.12,0v-26.35s-82.27-56.34-82.27-56.34l-35.81,24.52-137.09-93.88V108.02c42.23-9.07,88.16-14.15,137.34-14.15s95.08,5.08,137.34,14.15v178.97s-19.09-13.05-19.09-13.05c-73.06-50.06-163.06-50.02-236.12,0v26.35s82.27,56.34,82.27,56.34l35.81-24.52,137.09,93.88v207.97s0-.04,0-.04Zm-390.95-40.46c-95.18-48.79-152.54-127.14-152.54-222.5s57.36-173.68,152.54-222.5v445.04s0-.04,0-.04Z"/>
  </g>
</svg>